<svg width="3589" height="1055" viewBox="0 0 3589 1055" fill="none" xmlns="http://www.w3.org/2000/svg">
<path fill-rule="evenodd" clip-rule="evenodd" d="M3241.5 41.0245C3240.12 41.1825 3232.02 41.8255 3223.5 42.4545C3167.66 46.5745 3102.18 58.0055 3033.74 75.5825C3024.8 77.8795 3017.64 79.9125 3017.83 80.1005C3018.02 80.2895 3025.78 78.6765 3035.09 76.5165C3093.09 63.0505 3159.93 53.5315 3225.25 49.4395C3258.91 47.3295 3307.62 48.2215 3310.4 50.9985C3312.03 52.6325 3305.54 53.1805 3277.7 53.7615C3177.86 55.8445 3073.62 71.1695 2985 96.7915C2936.87 110.707 2874.78 133.146 2828.58 153.322C2823.4 155.584 2819 157.268 2818.79 157.065C2817.83 156.106 2869.72 131.93 2896.27 120.966C2913 114.057 2905.22 116.233 2884.4 124.291C2858.1 134.465 2820.02 150.339 2797.08 160.693C2753.13 180.534 2695.59 211.634 2700.08 213.129C2700.64 213.318 2717.51 205.424 2737.55 195.586C2773.81 177.794 2799.91 165.438 2801.24 165.438C2801.62 165.438 2793.4 170.312 2782.97 176.27C2739.84 200.896 2704.14 226.382 2675.36 253.072C2629.02 296.066 2610.7 336.96 2620.11 376.438C2622.82 387.818 2631.38 403.74 2640.82 414.961C2658.41 435.867 2671.33 445.988 2681.96 447.187C2687.69 447.832 2689.5 445.888 2689.49 439.117C2689.48 433.131 2686.71 426.491 2680.57 417.735C2674.83 409.544 2672.78 400.772 2674.3 390.953C2677 373.589 2686.53 351.26 2697.51 336.562C2709.43 320.602 2729.48 301.273 2749.94 286.026C2810.17 241.126 2876.39 204.924 2955 173.914C3088.37 121.303 3224.36 98.2845 3326.5 111.034C3366.28 115.999 3403.6 125.471 3424.5 135.907C3437.87 142.58 3438.5 143.285 3438.5 151.5C3438.5 178.21 3401.15 251.129 3350.7 322.926C3292.21 406.16 3224 479.902 3148 542.057C3072.96 603.428 2997.91 643.624 2926 660.958C2890.94 669.409 2848.98 673.665 2833.48 670.341C2814.23 666.212 2837.58 643.885 2894.16 612.317C2927.28 593.837 2989.88 567.102 3029 554.729C3036.7 552.293 3044.94 549.357 3047.3 548.203C3053.44 545.207 3061.5 536.136 3061.5 532.214V529.151L3054.53 529.799C3031.14 531.972 2976.88 547.542 2935.36 563.994C2898.97 578.414 2855.8 600.047 2829.1 617.244C2809.79 629.685 2789.59 645.96 2781.86 655.307C2778.85 658.954 2774.72 665.289 2772.69 669.385C2769.08 676.672 2769 677.079 2769 688.385C2769 699.326 2769.16 700.222 2771.97 705.302C2778.62 717.303 2795.13 728.261 2813.51 732.867C2826.5 736.122 2838.1 736.824 2857 735.5C2895.63 732.794 2933.4 724.643 2985.18 707.839C2986.18 707.514 2984.3 708.892 2981 710.901C2977.7 712.911 2975.49 714.415 2976.1 714.245C2978.43 713.588 3008.45 700.057 3008.18 699.784C3008.02 699.625 3004.32 700.83 2999.95 702.463C2995.58 704.095 2991.55 705.43 2991 705.43C2987.71 705.431 3045.46 674.112 3097.5 647.677C3140.9 625.63 3172.7 607.464 3192.67 593.315C3205.24 584.407 3212.93 578.261 3237.63 557.396C3298.41 506.05 3313.29 492.64 3349.06 456.943C3406.38 399.737 3446.82 349.181 3474.25 300.438C3484.41 282.382 3485.19 281.949 3476.63 299.115C3449.17 354.182 3410.43 409.097 3362.11 461.438C3358.3 465.562 3361.45 462.637 3369.1 454.938C3392.9 430.98 3421.72 396.357 3444.69 364.128C3469.7 329.033 3490.88 288.671 3499.02 260.594C3501.45 252.193 3501.5 251.336 3501.5 216.98L3501.5 181.938L3498.48 175.557C3496.82 172.047 3493.94 166.648 3492.08 163.558C3489.01 158.452 3488.65 157.024 3488.15 147.938C3486.69 121.468 3474.74 99.6655 3451.94 81.8635C3422.07 58.5345 3382.25 46.2335 3321.1 41.4475C3309.85 40.5655 3248.34 40.2395 3241.5 41.0245ZM432.5 44.5505C381.903 47.2205 347.549 51.6845 310.5 60.4045C202.619 85.7955 127.276 126.557 93.394 177.863L87.5 186.789V230.534V274.277L93.002 279.181C100.703 286.045 106.586 288.784 114.648 289.259C121.063 289.637 121.427 289.532 125.052 286.21C128.321 283.214 128.866 282.066 129.253 277.353C129.568 273.527 129.083 270.114 127.6 265.723L125.502 259.507L127.502 254.161C138.199 225.57 175.684 195.251 239 163.976C264.233 151.512 285.886 142.524 321.055 129.917C348.632 120.031 353.653 118.595 377 113.922C428.893 103.537 488.92 95.2035 547.5 90.2515C564.159 88.8435 643.771 88.3785 645.076 89.6815C646.119 90.7225 641.128 103.038 636.701 110.347C630.885 119.947 624.983 127.443 606.035 149.296C596.326 160.493 588.611 169.881 588.889 170.159C589.788 171.059 595.879 166.682 600.595 161.746C603.122 159.101 608.045 152.888 611.535 147.938C617.585 139.357 640.053 115.658 641.123 116.728C641.404 117.008 635.152 125.945 627.232 136.588C619.311 147.23 592.875 182.713 568.483 215.438C479.562 334.741 444.051 384.322 393.009 460.438C357.136 513.933 332.55 554.315 317.622 584.26C307.236 605.095 302.54 619.146 302.522 629.438C302.508 637.334 306.317 650.464 311.95 661.938C326.809 692.201 355.049 713.438 380.437 713.438C393.583 713.438 393.768 706.688 380.955 694.563C377.497 691.291 374.243 686.987 372.638 683.563C370.14 678.236 370.001 677.115 370.015 662.438C370.029 648.59 370.327 645.87 372.806 636.938C378.435 616.657 388.847 593.541 399.625 577.391C409.223 563.01 428.165 544.287 476 501.901C485.9 493.129 504.315 476.499 516.923 464.945C544.859 439.344 547.404 436.958 545.5 438.164C542.047 440.352 504.578 470.888 471.478 498.49C436.315 527.814 425.83 536.101 424.973 535.245C424.325 534.596 459.311 501.942 487.5 476.888C531.633 437.662 580.382 396.24 691.5 303.551C711.575 286.806 737.9 264.692 750 254.409C775.807 232.479 792.873 218.498 793.315 218.927C793.488 219.095 790.961 222.992 787.7 227.586C756.817 271.088 689.013 387.151 654.59 455.438C639.033 486.299 633.297 499.05 627.803 514.99C624.193 525.467 624.031 526.497 624.036 538.938C624.041 553.811 625.656 560.524 632.535 574.266C637.493 584.174 645.719 592.253 654.003 595.352C662.827 598.654 663.686 598.382 667.066 591.227C676.282 571.721 701.665 539.171 744.458 491.982C761.3 473.41 841.632 392.909 880 356.153C893.2 343.508 914.3 323.211 926.889 311.049C949.667 289.045 949.763 288.966 946.776 294.938C942.935 302.619 927.666 341.036 914.186 376.938C868.368 498.973 836.112 616.895 828.434 690.438C827.774 696.762 827.215 709.812 827.192 719.438C827.142 740.395 828.601 749.686 834.82 768.037C837.677 776.468 839.742 784.922 840.781 792.438C845.741 828.335 855.506 842.752 880.833 851.568C890.616 854.974 895.397 855.113 910.295 852.43C932.495 848.433 951.144 840.749 960.09 831.914C967.248 824.845 967.73 819.917 962.094 811.401C956.75 803.326 940.089 795.525 921.5 792.396C917.375 791.701 911.703 790.075 908.896 788.782C902.512 785.84 891.731 783.058 878.124 780.841C867.708 779.144 867.616 779.105 868.04 776.534C868.276 775.106 868.946 769.679 869.531 764.474C870.549 755.4 871.5 751.519 871.5 756.438C871.5 757.72 871.712 758.559 871.971 758.3C872.23 758.041 875.168 744.803 878.501 728.883C888.949 678.973 889.552 676.368 895.026 657.438C909.988 605.696 939.437 528.529 985.087 421.438C997.074 393.316 1004 378.721 1019.99 347.836C1025.27 337.647 1026 331.7 1021.02 339.438C1014.69 349.288 995.811 384.087 986.032 403.938C970.226 436.021 944.955 492.884 927.485 535.675C926.196 538.83 924.976 541.247 924.773 541.044C924.311 540.582 935.69 509.91 943.734 489.938C974.94 412.451 1006.53 353.807 1046.34 299.438C1056.95 284.943 1057.24 283.71 1051.99 274.996C1044.71 262.907 1038.74 255.537 1025.57 242.378C1011.39 228.204 994.65 214.9 985.805 210.768L980.609 208.341L976.305 210.512C955.777 220.86 898.049 272.964 809.75 360.841C781.012 389.442 757.5 412.505 757.5 412.091C757.5 411.382 776.497 383.331 793.497 358.938C810.388 334.701 873.665 241.169 880.924 229.711C889.215 216.623 889.513 215.352 885.94 208.353C878.074 192.949 842.28 165.67 823.681 160.905L817.377 159.291L811.688 163.569C779.463 187.814 664.145 283.904 563 370.792C495.885 428.446 501.918 423.352 503.02 421.438C507.417 413.804 557.201 349.147 592.339 305.438C648.297 235.828 688.474 188.981 739.37 133.994L749.5 123.051L749.49 115.494C749.477 105.341 746.697 99.4925 737.244 89.7325C723.734 75.7835 706.422 64.2395 683.696 54.0255C661.549 44.0725 650.5 43.8985 650.5 53.5045C650.5 55.9625 650.152 56.4665 648.75 56.0405C641.207 53.7465 602.783 48.3235 581 46.4785C545.381 43.4605 471.368 42.4995 432.5 44.5505ZM3014.31 81.1205C3015.03 81.4095 3015.9 81.3735 3016.23 81.0415C3016.56 80.7095 3015.97 80.4735 3014.92 80.5165C3013.75 80.5645 3013.51 80.8015 3014.31 81.1205ZM3010.31 82.1205C3011.03 82.4095 3011.9 82.3735 3012.23 82.0415C3012.56 81.7095 3011.97 81.4735 3010.92 81.5165C3009.75 81.5645 3009.51 81.8015 3010.31 82.1205ZM3006.83 83.1045C3007.2 83.4705 3007.8 83.4705 3008.17 83.1045C3008.53 82.7375 3008.23 82.4375 3007.5 82.4375C3006.77 82.4375 3006.47 82.7375 3006.83 83.1045ZM3002.83 84.1045C3003.2 84.4705 3003.8 84.4705 3004.17 84.1045C3004.53 83.7375 3004.23 83.4375 3003.5 83.4375C3002.77 83.4375 3002.47 83.7375 3002.83 84.1045ZM2920.5 110.938C2920.5 111.213 2920.72 111.438 2921 111.438C2921.28 111.438 2921.5 111.213 2921.5 110.938C2921.5 110.663 2921.28 110.438 2921 110.438C2920.72 110.438 2920.5 110.663 2920.5 110.938ZM2914.83 113.104C2915.2 113.47 2915.8 113.47 2916.17 113.104C2916.53 112.737 2916.23 112.438 2915.5 112.438C2914.77 112.438 2914.47 112.737 2914.83 113.104ZM2911.83 114.104C2912.2 114.47 2912.8 114.47 2913.17 114.104C2913.53 113.737 2913.23 113.438 2912.5 113.438C2911.77 113.438 2911.47 113.737 2911.83 114.104ZM2909.5 114.938C2909.5 115.213 2909.72 115.438 2910 115.438C2910.28 115.438 2910.5 115.213 2910.5 114.938C2910.5 114.663 2910.28 114.438 2910 114.438C2909.72 114.438 2909.5 114.663 2909.5 114.938ZM2906.83 116.104C2907.2 116.47 2907.8 116.47 2908.17 116.104C2908.53 115.737 2908.23 115.438 2907.5 115.438C2906.77 115.438 2906.47 115.737 2906.83 116.104ZM2817.5 157.938C2817.5 158.213 2817.28 158.438 2817 158.438C2816.72 158.438 2816.5 158.213 2816.5 157.938C2816.5 157.663 2816.72 157.438 2817 157.438C2817.28 157.438 2817.5 157.663 2817.5 157.938ZM2815.5 158.938C2815.5 159.213 2815.28 159.438 2815 159.438C2814.72 159.438 2814.5 159.213 2814.5 158.938C2814.5 158.663 2814.72 158.438 2815 158.438C2815.28 158.438 2815.5 158.663 2815.5 158.938ZM3000.9 196.609C2992.07 207.239 2984.31 216.92 2983.67 218.121C2980.25 224.522 2984.28 226.907 2993.05 223.674C2996.05 222.57 2998.5 221.909 2998.5 222.203C2998.5 222.924 2983.64 240.489 2950.49 278.938C2935.32 296.538 2914.58 320.837 2904.41 332.938C2808.57 446.897 2788.18 471.298 2769.88 493.938C2690.04 592.656 2646.6 653.693 2627.06 694.581C2618.46 712.557 2617.14 717.233 2617.14 729.438C2617.15 738.757 2617.5 740.873 2620.28 748.261C2624.53 759.56 2632.5 771.094 2643.77 782.255L2653.17 791.573L2659.48 780.255C2675.68 751.153 2700.67 717.344 2759.86 644.438C2775.27 625.462 2789.36 608.249 2791.19 606.185C2794.48 602.456 2795.48 599.438 2793.43 599.438C2790.7 599.438 2776.66 615.192 2730.35 670.188C2702.9 702.776 2680.19 729.438 2679.88 729.438C2679.06 729.438 2681.55 725.637 2698.07 701.656C2732.71 651.377 2775.73 596.337 2829.79 533.107C2905.98 444.012 2964.49 380.674 3051.45 293.161C3100.12 244.181 3102.89 241.198 3102.8 237.918C3102.74 236.011 3101.57 232.535 3100.19 230.194C3097.02 224.815 3082.04 210.244 3073.44 204.167C3057.16 192.667 3030.55 179.23 3021.49 177.928L3016.97 177.281L3000.9 196.609ZM2542.06 208.47C2539.35 208.941 2532.6 211.563 2527.06 214.297C2513.86 220.82 2507.25 222.109 2495.74 220.415C2479.79 218.07 2475.21 218.042 2472.46 220.272C2470.32 222.005 2470 223.075 2470 228.599C2470 239.266 2477.39 252.029 2492.2 266.914C2501.72 276.49 2509.95 281.739 2514.51 281.147C2524.6 279.839 2543.26 269.278 2554.5 258.512L2561 252.289L2552.5 258.733C2544.3 264.95 2536.73 269.351 2531.5 270.936C2530.12 271.353 2532.6 269.105 2537 265.941C2559.6 249.69 2571.5 237.446 2571.5 230.453C2571.5 229.308 2570.38 226.152 2569 223.441C2562.69 210.977 2554.34 206.34 2542.06 208.47ZM1985.64 210.557C1982.3 210.985 1976.46 213.137 1970.14 216.262C1956.53 222.995 1950.49 224.176 1938.37 222.474C1919.97 219.891 1917.92 219.931 1914.91 222.935C1912.45 225.395 1912.28 226.095 1912.73 231.78C1913.61 242.654 1921.44 255.601 1935.69 269.711C1945.28 279.207 1952.7 283.808 1957.4 283.178C1967.45 281.83 1985.95 271.438 1997 260.935C2003.48 254.772 2002.4 255.21 1992.4 262.794C1985.91 267.715 1979.05 271.59 1974.5 272.897C1972.63 273.434 1973.01 272.917 1976 270.857C1985.74 264.135 2001.64 251.059 2006.39 245.866C2015.9 235.459 2016.34 232.147 2009.6 221.716C2003.54 212.341 1996.67 209.141 1985.64 210.557ZM3486.5 279.938C3486.5 280.213 3486.28 280.438 3486 280.438C3485.72 280.438 3485.5 280.213 3485.5 279.938C3485.5 279.662 3485.72 279.438 3486 279.438C3486.28 279.438 3486.5 279.662 3486.5 279.938ZM3485.5 281.938C3485.5 282.213 3485.28 282.438 3485 282.438C3484.72 282.438 3484.5 282.213 3484.5 281.938C3484.5 281.662 3484.72 281.438 3485 281.438C3485.28 281.438 3485.5 281.662 3485.5 281.938ZM3484.5 283.938C3484.5 284.213 3484.28 284.438 3484 284.438C3483.72 284.438 3483.5 284.213 3483.5 283.938C3483.5 283.662 3483.72 283.438 3484 283.438C3484.28 283.438 3484.5 283.662 3484.5 283.938ZM1594 318.391C1586.98 319.921 1578.7 323.454 1572.61 327.521C1564.63 332.853 1554.89 343.413 1553.41 348.336C1552.41 351.663 1550.94 353.137 1543.62 358.096C1524.17 371.272 1499.65 392.306 1475.01 416.943C1431.44 460.504 1395.8 512.515 1377.87 558.693C1373.18 570.771 1369.69 585.795 1368.41 599.438C1367.1 613.319 1368.49 621.68 1374.05 633.383C1376.01 637.516 1377.2 641.038 1376.68 641.211C1376.16 641.384 1373.1 643.129 1369.87 645.091C1352.53 655.628 1340.09 660.088 1330.73 659.122C1324.12 658.44 1319.96 656.067 1315.79 650.596C1310.35 643.459 1309.27 638.235 1308.75 616.545C1307.78 576.236 1312.49 533.77 1320.51 510.406C1322.15 505.618 1323.5 500.582 1323.5 499.216C1323.5 492.373 1313.11 484.361 1290.5 473.773C1276.96 467.434 1275.53 466.982 1269 466.961C1263.09 466.942 1260.86 467.472 1254.71 470.356C1243.67 475.53 1238.51 482.5 1236.33 495.195L1235.16 502.052L1220.08 513.073C1211.79 519.134 1199.38 528.08 1192.5 532.953C1185.62 537.827 1173.02 547.054 1164.5 553.459C1155.98 559.865 1139.34 572.209 1127.53 580.891C1091.5 607.386 1075.06 621.704 1060.93 638.885C1058.69 641.607 1056.59 643.39 1056.25 642.846C1054.71 640.349 1060.33 633.854 1079.01 616.544C1117.88 580.541 1131.42 569.266 1153.93 554.182C1184.08 533.977 1208.14 516.207 1212.5 510.929C1213.92 509.212 1213.86 509.184 1211.5 510.433C1203.29 514.782 1155.55 547.315 1142 557.799C1112.81 580.389 1085.74 602.594 1070.75 616.255C1065.66 620.891 1061.5 624.411 1061.5 624.078C1061.5 622.516 1069.79 605.812 1075.47 595.938C1092.28 566.698 1126.16 520.666 1159.38 481.938C1200.64 433.832 1236.85 398.103 1252.96 389.596C1257.49 387.206 1259.06 386.938 1268.5 386.938C1278.22 386.938 1279.49 387.171 1285.5 390.07C1299.56 396.845 1314.18 413.697 1324.65 435.179C1328.94 443.988 1329.55 444.739 1331.71 443.909C1336.62 442.025 1337.74 432.146 1334.54 418.823C1330.66 402.654 1323.74 390.945 1308.92 375.503C1292.09 357.972 1279.46 348.769 1256 336.938C1237.46 327.587 1221.25 322.398 1205.93 320.905L1198.87 320.216L1194.93 324.672C1192.5 327.43 1189.47 329.62 1187 330.417C1180.47 332.522 1177.37 334.416 1170 340.832C1145.57 362.092 1125.1 382.902 1097.22 414.826C1067.24 449.163 1070.84 446.414 1118.16 398.87C1144.47 372.434 1167.58 349.725 1169.5 348.406C1172.1 346.625 1171.22 347.928 1166.09 353.474C1119.01 404.37 1098.35 428.834 1066.89 470.938C1017.97 536.428 987.539 592.956 974.536 642.524L972.283 651.11L981.961 664.524C998.194 687.021 1021.68 713.593 1029.5 718.317C1031.42 719.48 1033.9 720.422 1035 720.412C1038.08 720.385 1111.99 660.404 1154.5 623.427C1173.73 606.699 1229.22 559.807 1232.93 557.144C1235.73 555.138 1235.83 555.132 1235.02 556.989C1233.57 560.326 1233.23 580.914 1234.45 591.672C1236.85 612.886 1243 637.454 1249.58 652.122C1256.62 667.809 1269.27 682.807 1282.87 691.599C1297.79 701.244 1316.84 701.722 1335.38 692.919C1352.59 684.745 1374.96 665.02 1381.67 652.109L1383.14 649.282L1387.31 654.687C1397.87 668.375 1422.66 689.887 1437.89 698.573C1449.73 705.324 1465.12 710.389 1473.9 710.422C1480.77 710.448 1498.44 699.502 1525.59 678.396C1536.45 669.952 1548.13 660.529 1610 610.323C1694.39 541.842 1724.32 519.329 1749.5 505.417C1763.65 497.596 1769.24 493.501 1777.22 485.091C1788.57 473.147 1788.44 468.898 1776.75 468.995C1770.26 469.049 1768.87 469.493 1757.38 475.164C1740.78 483.359 1700.56 506.963 1658.5 533.203C1639.52 545.04 1622.88 555.419 1621.5 556.266C1606.39 565.57 1674.1 518.563 1706.15 497.497C1718.34 489.489 1729.14 482.384 1730.15 481.706C1731.17 481.028 1728.4 482.062 1724 484.006C1703.21 493.186 1662.83 517.292 1630.3 539.938C1612.94 552.021 1543.29 603.389 1540.5 606.164C1539.18 607.471 1539.37 607.47 1542 606.148C1547.16 603.553 1560.27 595.638 1576.94 585.039C1594.79 573.694 1596.48 572.671 1595 574.13C1594.45 574.672 1584.55 582.253 1573 590.977C1545.05 612.088 1523.71 628.682 1509.76 640.154C1503.46 645.337 1498.11 649.381 1497.87 649.143C1497.1 648.373 1510.79 632.115 1517.49 625.839C1521.07 622.484 1525.8 618.051 1528 615.987L1532 612.234L1528.5 614.234C1504.17 628.138 1497.06 632.097 1485.5 638.148C1478.07 642.036 1467.76 646.897 1462.57 648.95C1454.41 652.18 1452.37 652.614 1447.44 652.167C1438.88 651.391 1434.87 649.066 1431.7 643.049C1429.19 638.297 1429 637.094 1429.05 625.938C1429.1 615.2 1429.44 612.932 1432.29 604.372C1440.03 581.122 1458.1 553.059 1485.05 522.438C1496.91 508.953 1529.72 476.676 1544.33 464.117C1575.2 437.58 1611.28 413.895 1636 403.937C1645.12 400.264 1659.03 396.458 1663.38 396.445C1665.57 396.439 1665.71 396.738 1665.16 400.133C1663.79 408.594 1648.08 435.205 1634.09 452.756C1624.25 465.103 1619.55 473.733 1621.24 476.346C1624.04 480.676 1636.52 475.768 1656 462.682C1684.6 443.461 1701.86 423.604 1703.24 408.312C1703.72 403.019 1703.41 401.852 1699.21 393.256C1688.35 371.037 1658.15 334.764 1643.24 326.023C1633.1 320.082 1605.72 315.838 1594 318.391ZM2416 319.844C2409.05 321.561 2405.19 323.781 2401.62 328.107C2394.09 337.247 2395.74 351.925 2405.54 362.938C2407.04 364.627 2407.18 365.774 2406.45 370.312C2402.47 394.975 2370.23 461.031 2327.8 531.438C2271.58 624.738 2217.64 706.975 2165.15 779.438C2135.38 820.533 2102.16 859.021 2061.55 899.438C2022.38 938.431 1990.08 963.261 1965.52 973.276C1953.74 978.077 1949.8 978.4 1945.65 974.911C1941.56 971.466 1937.29 963.078 1933.86 951.734C1931.61 944.314 1931.19 941.059 1931.19 930.938C1931.19 924.338 1931.72 916.241 1932.36 912.946C1933 909.65 1933.82 902.458 1934.18 896.964L1934.83 886.974L1932.42 888.537C1924.96 893.365 1910.42 918.762 1906.42 933.938C1903.85 943.681 1902.8 963.361 1904.38 971.849C1907.44 988.176 1915.85 998.418 1932.76 1006.41C1945.16 1012.27 1954.36 1014.44 1966.7 1014.42C1989.04 1014.38 2011.19 1005.86 2041.5 985.652C2097.71 948.173 2166.48 879.006 2244.67 781.312C2324.19 681.943 2357.65 635.079 2409.17 550.938C2425.89 523.625 2426.11 522.861 2412.25 540.188C2391.74 565.847 2354.67 615.561 2340.32 636.656C2282.83 721.193 2240.06 776.744 2198.35 821.055C2176.52 844.249 2154.76 862.756 2140.19 870.524C2135 873.29 2139.05 868.945 2177.75 830.281C2223.31 784.764 2238.9 767.917 2261.41 739.938C2289.05 705.567 2299.95 690.34 2340.15 629.938C2384.08 563.951 2418.59 515.509 2432.43 500.438C2462.3 467.886 2480 444.188 2489.57 423.938C2495.17 412.069 2496.9 405.394 2496.84 395.938C2496.76 385.181 2492.73 377.53 2483.71 370.982C2479.5 367.928 2479.01 367.112 2477.82 361.292C2475.68 350.782 2471.44 343.533 2462.57 335.185C2447.87 321.351 2431.59 315.991 2416 319.844ZM1866.85 321.43C1864.25 322.481 1860.23 327.651 1858.21 332.534C1854.01 342.726 1851.05 364.268 1852.48 374.315L1853.38 380.692L1823.59 422.315C1752.29 521.942 1724.28 570.439 1707.73 622.938C1700.37 646.319 1700.35 646.404 1700.77 654.657C1701.4 666.927 1705.6 674.324 1720.15 688.808L1731.8 700.404L1742.17 690.411C1766.24 667.229 1826.55 619.41 1886.5 575.974C1897.77 567.805 1913.53 556.32 1921.5 550.453C1929.47 544.586 1936.48 539.505 1937.07 539.161C1937.67 538.817 1936.23 543.352 1933.88 549.237C1925.4 570.469 1921.43 588.43 1921.25 606.294C1921.1 621.632 1924.39 631.344 1935.36 647.932C1940.72 656.047 1957.87 674.158 1968 682.398C1988.9 699.401 2012.1 710.438 2026.95 710.438C2036.87 710.438 2074.09 683.209 2151.34 619.422C2235.42 550.01 2268.98 524.656 2301 506.388C2317.35 497.059 2322.26 493.482 2330.23 485.091C2341.54 473.182 2341.43 468.901 2329.85 468.99C2323.58 469.039 2321.9 469.553 2311.47 474.581C2287.83 485.991 2253.77 506.573 2162.35 564.695C2096.02 606.871 2061.92 627.2 2037 639.419C2015.21 650.106 2007.56 652.761 2000.38 652.138C1991.67 651.383 1988 649.165 1984.87 642.758C1978.45 629.645 1981.54 610.185 1993.93 585.57L1997.37 578.744L2008.19 578.117C2039.78 576.285 2079.47 560.721 2131 529.948C2169.11 507.189 2196.57 486.497 2220.53 462.487C2243.73 439.232 2256.5 419.235 2256.5 406.159C2256.5 390.421 2215.08 336.165 2194.5 324.938C2189.4 322.157 2188.31 321.948 2179.5 322.081C2167.81 322.257 2160.63 324.077 2145.08 330.81C2114.03 344.249 2080.46 367.4 2046 399.135C2031.03 412.92 2009.66 434.853 2000.97 445.339C1995.18 452.334 1994.49 452.807 1978.22 461.015C1929.64 485.52 1890.97 509.138 1854.19 536.776C1840.55 547.029 1836.85 550.892 1844.43 546.972C1846.12 546.1 1847.5 545.566 1847.5 545.786C1847.5 547.188 1823.19 564.438 1821.21 564.438C1820.72 564.438 1822.66 560.049 1825.52 554.688C1848.27 511.97 1896.33 443.629 1931.24 404.362C1946.89 386.766 1945.88 388.37 1945.81 381.156C1945.73 371.953 1942.06 364.775 1932.86 355.76C1920.46 343.624 1896.02 328.956 1878.27 322.996C1869.9 320.186 1869.93 320.19 1866.85 321.43ZM2218.5 397.464C2218.5 399.122 2211.02 406.106 2195 419.409C2186.75 426.26 2173.66 437.281 2165.91 443.901C2149 458.345 2134.99 469.369 2119.5 480.417C2113.18 484.929 2106.99 489.557 2105.75 490.703C2103.3 492.974 2102.74 494.942 2104.78 494.161C2105.48 493.892 2126.74 478.399 2152.03 459.732C2201.56 423.163 2203.31 421.917 2204.06 422.661C2204.8 423.408 2186.72 440.387 2173.09 451.745C2132.02 485.95 2074.66 521.779 2032.85 539.336C2026.17 542.142 2020.41 544.438 2020.04 544.438C2017.66 544.438 2047.08 510.812 2065.34 492.656C2089.51 468.622 2114.39 448.155 2142 429.576C2162.11 416.048 2175.17 408.667 2188.29 403.414C2202.66 397.666 2218.5 394.545 2218.5 397.464ZM1979.5 467.846C1979.5 468.431 1935.53 494.249 1912.5 507.187C1891.62 518.916 1887.41 521.444 1866.52 534.812C1853.62 543.064 1850.65 544.628 1851.99 542.45C1853.13 540.607 1899.92 509.906 1914.5 501.438C1925.49 495.05 1977.76 467.628 1979.25 467.464C1979.39 467.449 1979.5 467.621 1979.5 467.846ZM3277.5 540.036C3237.32 574.101 3166.07 622.541 3116.01 649.817C3108.32 654.008 3102.39 657.438 3102.82 657.438C3104.35 657.438 3165.1 626.468 3178.37 618.922C3204.78 603.908 3215.44 595.835 3257 559.375C3279.68 539.481 3285.17 534.519 3284.5 534.523C3284.22 534.525 3281.08 537.005 3277.5 540.036ZM924.167 544.104C923.8 544.47 923.5 544.17 923.5 543.438C923.5 542.705 923.8 542.405 924.167 542.771C924.533 543.138 924.533 543.737 924.167 544.104ZM923.5 545.938C923.5 546.213 923.275 546.438 923 546.438C922.725 546.438 922.5 546.213 922.5 545.938C922.5 545.662 922.725 545.438 923 545.438C923.275 545.438 923.5 545.662 923.5 545.938ZM1618.5 557.878C1618.5 558.121 1617.98 558.64 1617.34 559.032C1616.63 559.475 1616.46 559.308 1616.91 558.593C1617.62 557.44 1618.5 557.044 1618.5 557.878ZM1615.5 559.938C1615.5 560.213 1615.28 560.438 1615 560.438C1614.72 560.438 1614.5 560.213 1614.5 559.938C1614.5 559.662 1614.72 559.438 1615 559.438C1615.28 559.438 1615.5 559.662 1615.5 559.938ZM916.167 566.104C915.8 566.47 915.5 566.17 915.5 565.438C915.5 564.705 915.8 564.405 916.167 564.771C916.533 565.138 916.533 565.737 916.167 566.104ZM915.167 569.104C914.8 569.47 914.5 569.17 914.5 568.438C914.5 567.705 914.8 567.405 915.167 567.771C915.533 568.138 915.533 568.737 915.167 569.104ZM914.04 572.188C912.007 577.468 899.65 619.631 894.942 637.352C889.18 659.041 881.009 696.167 875.015 727.888C870.008 754.382 869.421 754.053 872.014 726.203C875.577 687.945 884.25 653.841 906.224 591.688C910.356 580 913.957 570.438 914.225 570.438C914.494 570.438 914.411 571.225 914.04 572.188ZM3423.5 617.752C3421.03 618.342 3413.97 621.41 3407.83 624.57C3401.68 627.729 3394.29 631.016 3391.4 631.875C3384.59 633.896 3367.74 633.893 3356.5 631.87C3345.37 629.866 3340.39 630.588 3336.93 634.708C3334.45 637.657 3334.3 638.369 3334.73 645.403C3335.3 654.744 3339.1 663.557 3347.22 674.383C3355.32 685.198 3369.7 699.19 3379 705.315C3386.51 710.26 3387.32 710.56 3392.18 710.185C3396.01 709.889 3400.82 708.076 3410.78 703.17C3425.38 695.986 3436.61 688.087 3446 678.409L3452 672.226L3441.09 680.383C3429.64 688.938 3418.73 695.748 3414.5 696.966C3411.15 697.931 3411.4 697.726 3423.5 689.648C3435.74 681.469 3445.87 672.752 3454.53 662.938C3461.52 655.004 3464.5 649.834 3464.5 645.617C3464.5 637.843 3452.53 622.638 3443 618.302C3438.54 616.271 3430.64 616.048 3423.5 617.752ZM3100.5 657.938C3100.5 658.213 3100.72 658.438 3101 658.438C3101.28 658.438 3101.5 658.213 3101.5 657.938C3101.5 657.662 3101.28 657.438 3101 657.438C3100.72 657.438 3100.5 657.662 3100.5 657.938ZM3073.5 670.938C3073.5 671.213 3073.72 671.438 3074 671.438C3074.28 671.438 3074.5 671.213 3074.5 670.938C3074.5 670.662 3074.28 670.438 3074 670.438C3073.72 670.438 3073.5 670.662 3073.5 670.938ZM3071.5 671.938C3071.5 672.213 3071.72 672.438 3072 672.438C3072.28 672.438 3072.5 672.213 3072.5 671.938C3072.5 671.662 3072.28 671.438 3072 671.438C3071.72 671.438 3071.5 671.662 3071.5 671.938ZM3067.5 673.938C3067.5 674.213 3067.72 674.438 3068 674.438C3068.28 674.438 3068.5 674.213 3068.5 673.938C3068.5 673.662 3068.28 673.438 3068 673.438C3067.72 673.438 3067.5 673.662 3067.5 673.938ZM3065.5 674.938C3065.5 675.213 3065.72 675.438 3066 675.438C3066.28 675.438 3066.5 675.213 3066.5 674.938C3066.5 674.662 3066.28 674.438 3066 674.438C3065.72 674.438 3065.5 674.662 3065.5 674.938ZM3062.83 676.104C3063.2 676.47 3063.8 676.47 3064.17 676.104C3064.53 675.737 3064.23 675.438 3063.5 675.438C3062.77 675.438 3062.47 675.737 3062.83 676.104ZM3060.5 676.938C3060.5 677.213 3060.72 677.438 3061 677.438C3061.28 677.438 3061.5 677.213 3061.5 676.938C3061.5 676.662 3061.28 676.438 3061 676.438C3060.72 676.438 3060.5 676.662 3060.5 676.938ZM3058.5 677.938C3058.5 678.213 3058.72 678.438 3059 678.438C3059.28 678.438 3059.5 678.213 3059.5 677.938C3059.5 677.662 3059.28 677.438 3059 677.438C3058.72 677.438 3058.5 677.662 3058.5 677.938ZM3056.5 678.938C3056.5 679.213 3056.72 679.438 3057 679.438C3057.28 679.438 3057.5 679.213 3057.5 678.938C3057.5 678.662 3057.28 678.438 3057 678.438C3056.72 678.438 3056.5 678.662 3056.5 678.938ZM3054.5 679.938C3054.5 680.213 3054.72 680.438 3055 680.438C3055.28 680.438 3055.5 680.213 3055.5 679.938C3055.5 679.662 3055.28 679.438 3055 679.438C3054.72 679.438 3054.5 679.662 3054.5 679.938ZM3051.83 681.104C3052.2 681.47 3052.8 681.47 3053.17 681.104C3053.53 680.737 3053.23 680.438 3052.5 680.438C3051.77 680.438 3051.47 680.737 3051.83 681.104ZM3049.5 681.938C3049.5 682.213 3049.72 682.438 3050 682.438C3050.28 682.438 3050.5 682.213 3050.5 681.938C3050.5 681.662 3050.28 681.438 3050 681.438C3049.72 681.438 3049.5 681.662 3049.5 681.938ZM3045.5 683.938C3045.5 684.213 3045.72 684.438 3046 684.438C3046.28 684.438 3046.5 684.213 3046.5 683.938C3046.5 683.662 3046.28 683.438 3046 683.438C3045.72 683.438 3045.5 683.662 3045.5 683.938ZM3040.5 685.938C3040.5 686.213 3040.72 686.438 3041 686.438C3041.28 686.438 3041.5 686.213 3041.5 685.938C3041.5 685.662 3041.28 685.438 3041 685.438C3040.72 685.438 3040.5 685.662 3040.5 685.938ZM3012.5 697.938C3012.5 698.213 3012.72 698.438 3013 698.438C3013.28 698.438 3013.5 698.213 3013.5 697.938C3013.5 697.662 3013.28 697.438 3013 697.438C3012.72 697.438 3012.5 697.662 3012.5 697.938ZM3009.83 699.104C3010.2 699.47 3010.8 699.47 3011.17 699.104C3011.53 698.737 3011.23 698.438 3010.5 698.438C3009.77 698.438 3009.47 698.737 3009.83 699.104ZM2973.5 714.938C2973.5 715.213 2973.72 715.438 2974 715.438C2974.28 715.438 2974.5 715.213 2974.5 714.938C2974.5 714.662 2974.28 714.438 2974 714.438C2973.72 714.438 2973.5 714.662 2973.5 714.938ZM2971.5 715.938C2971.5 716.213 2971.72 716.438 2972 716.438C2972.28 716.438 2972.5 716.213 2972.5 715.938C2972.5 715.662 2972.28 715.438 2972 715.438C2971.72 715.438 2971.5 715.662 2971.5 715.938Z" fill="black"/>
</svg>
